<svg width="224" height="56" fill="none" xmlns="http://www.w3.org/2000/svg" xmlns:xlink="http://www.w3.org/1999/xlink" viewBox="0 0 408.46 109.02"><defs><style>.cls-1{fill:url(#Безымянный_градиент_4);}.cls-2{fill:url(#Безымянный_градиент_4-2);}.cls-3{fill:url(#Безымянный_градиент_4-3);}</style><linearGradient id="Безымянный_градиент_4" x1="81.66" y1="109.02" x2="81.66" y2="21.62" gradientUnits="userSpaceOnUse"><stop offset="0" stop-color="#dadada"/><stop offset="0.49" stop-color="#fcfcfc"/><stop offset="1" stop-color="#a8a8a8"/></linearGradient><linearGradient id="Безымянный_градиент_4-2" x1="326.8" y1="109.02" x2="326.8" y2="21.62" xlink:href="#Безымянный_градиент_4"/><linearGradient id="Безымянный_градиент_4-3" x1="203.98" y1="102.39" x2="203.98" y2="0" xlink:href="#Безымянный_градиент_4"/></defs><path class="cls-1" d="M161.61,76.85l-6.44-9.17a1.22,1.22,0,0,1,0-1.4L159.5,60a1.24,1.24,0,0,0,.21-.84q-1.8-14.75-3.63-29.49a1.21,1.21,0,0,1,0-.19,20.51,20.51,0,0,1,1.4-6.91c.12-.32.25-.62.39-.92H1.68C15,32.35,28.75,36.56,44,36.81c13.34.22,26.68.26,40,.31,6.39,0,14.34.31,26.22.14,3.57,0,6.49-.13,8.4-.18-.12.82-.23,1.66-.34,2.5-.06.43-.11.87-.16,1.3H21.21a28.6,28.6,0,0,0,9.66,10.18c13,8.43,27.44,7.74,42.2,5.4,15.45-2.46,31-4.53,46.48-6.77l.54,2.89-69.53,11c26.23,18.53,49.63,3.74,73.3-2.53.24,1,.45,2,.67,2.93L74.12,81c22.53,15.1,38.8-3.07,57.1-8.68.42-.14.85-.25,1.28-.37.26.69.53,1.39.8,2.09l-2.08,1L92.69,94.73c9.21,5.76,17.3,6,25.34,1.4,7.63-4.35,14.86-9.28,22.36-13.83a25.44,25.44,0,0,1,4.69-1.74c.31.55.63,1.1.95,1.65-11.42,7.51-22.83,15-35.15,23.15,8.83,4.69,16.12,4.94,22.56.33a300.43,300.43,0,0,0,24.43-19.55c2.16-1.92,3.56-3.79,3.74-5.71v-.09a3.47,3.47,0,0,0,0-.91Z"/><path class="cls-2" d="M290.18,39.58c-.11-.84-.22-1.68-.34-2.5,1.91.05,4.83.13,8.4.18,11.88.17,19.83-.12,26.22-.14,13.33,0,26.67-.09,40-.31,15.24-.25,29-4.46,42.31-15.19H250.1c.14.3.27.6.39.92a20.51,20.51,0,0,1,1.4,6.91,1.21,1.21,0,0,1,0,.19q-1.81,14.74-3.63,29.49a1.24,1.24,0,0,0,.21.84l4.34,6.31a1.22,1.22,0,0,1,0,1.4l-6,8.47v3.28a3.47,3.47,0,0,0,0,.91v.09c.18,1.92,1.58,3.79,3.74,5.71A300.43,300.43,0,0,0,275,105.69c6.44,4.61,13.73,4.36,22.56-.33-12.32-8.11-23.73-15.64-35.15-23.15.32-.55.64-1.1.95-1.65a25.44,25.44,0,0,1,4.69,1.74c7.5,4.55,14.73,9.48,22.36,13.83,8,4.59,16.13,4.36,25.34-1.4L277.24,75.09l-2.08-1c.27-.7.54-1.4.8-2.09.43.12.86.23,1.28.37,18.3,5.61,34.57,23.78,57.1,8.68L283.93,64c.22-1,.43-1.95.67-2.93,23.67,6.27,47.07,21.06,73.3,2.53l-69.53-11,.54-2.89c15.51,2.24,31,4.31,46.48,6.77,14.76,2.34,29.17,3,42.2-5.4a28.6,28.6,0,0,0,9.66-10.18H290.34C290.29,40.45,290.24,40,290.18,39.58Z"/><path class="cls-3" d="M247.81,66.28,243.47,60a1.22,1.22,0,0,1-.21-.85q1.8-14.75,3.63-29.49a1.21,1.21,0,0,0,0-.19,20.51,20.51,0,0,0-1.4-6.91c-1.73-4.43-4.64-7.17-7.88-9.77L221.53,40l-.11-.1,7.25-22.63-6.65-.7c.16-.5.28-.9.41-1.27q1.78-4.92,3.56-9.86c-1.4-.66-2.94-1.31-4.6-1.92A58.43,58.43,0,0,0,204.05,0h-.14a58.43,58.43,0,0,0-17.33,3.5,54.15,54.15,0,0,0-14.65,8c-3.85,3-7.44,5.87-9.45,11a20.51,20.51,0,0,0-1.4,6.91,1.21,1.21,0,0,0,0,.19q1.81,14.74,3.63,29.49a1.28,1.28,0,0,1-.21.85l-4.34,6.3a1.22,1.22,0,0,0,0,1.4l13.34,19a1.21,1.21,0,0,0,.81.5L182,88.37a1.23,1.23,0,0,1,1,1l1.12,5.73a1.22,1.22,0,0,0,.6.83l11.07,6.32a1.32,1.32,0,0,0,.61.16h15.13a1.32,1.32,0,0,0,.61-.16l11.07-6.32a1.21,1.21,0,0,0,.59-.83L225,89.35a1.23,1.23,0,0,1,1-1l7.68-1.19a1.23,1.23,0,0,0,.81-.5l13.34-19A1.22,1.22,0,0,0,247.81,66.28ZM184,76.28c-.59.07-2,.15-3.94.26a8.79,8.79,0,0,1-2.42,0c-2-.5-3-2.5-3.44-3.25-.67-1.26-.82-2.2-1.21-6.57-.51-5.64-.45-6.09-.31-6.61.2-.82,1.23-4.47,4.32-5.74.62-.25,1.47-.47,3.95-.25a33.08,33.08,0,0,1,9,2.1c4.75,1.88,7.2,2.84,8.15,5.29a7.2,7.2,0,0,1-.13,4.84C195.85,73.35,186.6,76,184,76.28Zm26.35,11.17-1.86,1.14a1.23,1.23,0,0,1-1.34,0l-2.21-1.51a1.33,1.33,0,0,0-.69-.21h-.51a1.3,1.3,0,0,0-.69.21l-2.21,1.51a1.23,1.23,0,0,1-1.34,0l-1.86-1.14a1.24,1.24,0,0,1-.45-1.61l6.37-12.49h.87l6.37,12.49A1.25,1.25,0,0,1,210.34,87.45ZM235,66.72c-.39,4.37-.54,5.31-1.21,6.57-.41.75-1.48,2.75-3.44,3.25a8.79,8.79,0,0,1-2.42,0c-1.9-.11-3.35-.19-3.95-.26-2.61-.3-11.86-2.93-14-9.93a7.14,7.14,0,0,1-.13-4.84c.95-2.45,3.39-3.41,8.15-5.29a33.08,33.08,0,0,1,9-2.1c2.48-.22,3.33,0,3.95.25,3.09,1.27,4.12,4.92,4.32,5.74C235.44,60.63,235.5,61.08,235,66.72Z"/></svg>
